<?xml version="1.0" standalone="no"?>
<!DOCTYPE svg PUBLIC "-//W3C//DTD SVG 20010904//EN"
 "http://www.w3.org/TR/2001/REC-SVG-20010904/DTD/svg10.dtd">
<svg version="1.0" xmlns="http://www.w3.org/2000/svg"
 width="700.000000pt" height="700.000000pt" viewBox="0 0 700.000000 700.000000"
 preserveAspectRatio="xMidYMid meet">
<metadata>
Created by potrace 1.11, written by Peter Selinger 2001-2013
</metadata>
<g transform="translate(0.000000,700.000000) scale(0.100000,-0.100000)"
fill="#000000" stroke="none">
<path d="M3280 6993 c-641 -48 -1202 -237 -1715 -578 -189 -126 -332 -242
-504 -410 -402 -393 -685 -836 -865 -1355 -309 -889 -248 -1862 168 -2700 183
-366 374 -631 675 -930 576 -574 1269 -903 2106 -1002 143 -16 567 -16 710 0
571 67 1051 234 1515 525 443 279 857 702 1127 1152 527 878 645 1939 323
2906 -182 548 -466 1000 -886 1409 -592 577 -1329 908 -2179 980 -111 9 -371
11 -475 3z m270 -291 c53 -27 134 -143 220 -317 109 -220 171 -415 217 -680
16 -92 17 -265 20 -2277 l3 -2178 -520 0 -520 0 0 2125 c0 1423 3 2158 11
2223 41 383 201 812 387 1041 64 79 116 97 182 63z m-967 -2020 c37 -33 106
-138 152 -232 87 -179 138 -382 151 -600 l7 -110 -91 0 -92 0 0 -105 0 -105
90 0 90 0 0 -1145 0 -1145 -365 0 -365 0 0 1145 0 1145 90 0 90 0 0 105 0 105
-91 0 -92 0 6 138 c10 217 54 387 152 587 57 116 131 220 168 235 29 12 76 4
100 -18z m1980 -24 c153 -168 277 -541 277 -830 l0 -88 -90 0 -90 0 0 -105 0
-105 90 0 90 0 0 -1145 0 -1145 -365 0 -365 0 2 1143 3 1142 88 3 87 3 0 104
0 105 -92 0 -91 0 7 110 c13 226 67 430 161 617 58 115 132 218 168 233 40 17
80 3 120 -42z m-1923 -3798 l0 -170 -115 0 -115 0 0 170 0 170 115 0 115 0 0
-170z m750 -101 c0 -179 -4 -278 -11 -292 -20 -39 -51 -57 -101 -57 -39 0 -54
6 -80 29 l-33 29 -3 281 -3 281 116 0 115 0 0 -271z m470 0 c0 -281 -2 -298
-44 -331 -27 -22 -104 -23 -134 -2 -49 34 -52 54 -52 339 l0 265 115 0 115 0
0 -271z m760 0 c0 -281 -2 -298 -44 -331 -27 -22 -104 -23 -134 -2 -49 34 -52
54 -52 339 l0 265 115 0 115 0 0 -271z"/>
<path d="M3262 6200 c-38 -24 -52 -54 -52 -117 0 -38 5 -50 34 -79 l34 -34
196 0 c256 0 276 9 276 124 0 47 -4 61 -29 88 l-29 33 -199 3 c-184 2 -200 1
-231 -18z"/>
</g>
</svg>
